# This file uses centimeters as units for non-parametric coordinates.

mtllib book_OBJ.mtl
g default
v -2.824727 -0.701408 -3.881865
v 2.618901 -0.701408 -3.881865
v 2.618901 -0.701408 3.888686
v -2.824727 -0.701408 3.888686
v -2.824727 0.698652 -3.881865
v 2.590620 0.698652 -3.881865
v -2.824727 0.437084 -3.881865
v 2.590620 0.698652 3.888686
v 2.721824 0.698652 3.888686
v 2.721824 0.698652 -3.881865
v 2.886420 0.616293 -3.881865
v 2.886420 0.616293 3.888686
v 2.949423 0.532184 3.888686
v 2.949423 0.532184 -3.881865
v 2.794616 0.448589 -3.885275
v 3.020659 0.318262 -3.881865
v 3.020659 0.318262 3.888686
v 3.020659 -0.321019 3.888686
v 3.020659 -0.321019 -3.881865
v 2.721824 -0.701408 -3.881865
v 2.721824 -0.701408 3.888686
v 2.949423 -0.534941 -3.881865
v 2.949423 -0.534941 3.888686
v 2.886420 -0.619049 -3.881865
v 2.886420 -0.619049 3.888686
v 2.908082 0.442814 -3.883563
v 2.795165 -0.439841 -3.881865
v 2.795163 -0.439879 -3.678083
v 2.907923 -0.439841 -3.881865
v 2.794491 0.448589 -3.678083
v -2.676571 0.437388 -3.678083
v -2.824727 -0.439841 -3.881865
v -2.676571 -0.439879 -3.678083
v 2.907926 -0.440577 3.887227
v 2.795094 -0.441315 3.885767
v 2.795095 -0.441277 3.684904
v 2.908063 0.442698 3.877973
v 2.789924 0.448589 3.866733
v 2.790035 0.448589 3.684904
v -2.824727 0.698652 3.888686
v -2.824727 -0.439841 3.888686
v -2.824727 0.437084 3.888686
v -2.676571 -0.439879 3.684904
v -2.676571 0.437388 3.684904
vt 0.949171 0.971392
vt 0.965851 0.098954
vt 0.892552 0.026973
vt 0.556036 0.018324
vt 0.945969 0.482118
vt 0.892552 0.026973
vt 0.555503 0.034801
vt 0.965851 0.098954
vt 0.966272 0.092729
vt 0.605112 0.576382
vt 0.605207 0.563297
vt 0.961814 0.080962
vt 0.961814 0.080962
vt 0.910643 0.030700
vt 0.907476 0.042922
vt 0.924103 0.039362
vt 0.952758 0.067547
vt 0.924103 0.039362
vt 0.952758 0.067547
vt 0.966272 0.092729
vt 0.053541 0.453781
vt 0.961814 0.080962
vt 0.910643 0.030700
vt 0.961814 0.080962
vt 0.053447 0.466865
vt 0.913420 0.038640
vt 0.949571 0.084603
vt 0.711498 0.981568
vt 0.953942 0.078294
vt 0.903831 0.055141
vt 0.755673 0.713866
vt 0.965640 0.971284
vt 0.949763 0.428284
vt 0.913574 0.038350
vt 0.907476 0.042922
vt 0.715523 0.085282
vt 0.953942 0.078294
vt 0.949571 0.084603
vt 0.937953 0.088265
vt 0.949171 0.971392
vt 0.555503 0.034801
vt 0.965640 0.971284
vt 0.971852 0.494780
vt 0.757319 0.353373
vt 0.949763 0.428284
vt 0.759090 0.085729
vt 0.903831 0.055141
vt 0.714368 0.353177
vt 0.971852 0.494780
vt 0.712722 0.713670
vt 0.937953 0.088265
vt 0.754998 0.981734
vt 0.602270 0.970699
vt 0.049843 0.966716
vt 0.052619 0.581726
vt 0.605874 0.470849
vt 0.605820 0.478320
vt 0.053393 0.474336
vt 0.910643 0.030700
vt 0.898794 0.026438
vt 0.605968 0.457764
vt 0.053277 0.490366
vt 0.605704 0.494349
vt 0.053594 0.446464
vt 0.606021 0.450447
vt 0.605376 0.539797
vt 0.052950 0.535814
vt 0.052834 0.551843
vt 0.605261 0.555826
vt 0.910643 0.030700
vt 0.052780 0.559314
vt 0.052686 0.572399
vt 0.898794 0.026438
vt 0.605046 0.585709
vt 0.056384 0.059463
vt 0.608811 0.063446
vt 0.974885 0.958392
vt 0.962797 0.436561
vt 0.979265 0.435840
vt 0.563903 0.047724
vt 0.962439 0.482010
vt 0.945969 0.482118
vt 0.974885 0.958392
vt 0.962797 0.436561
vt 0.979265 0.435840
vt 0.563903 0.047724
vt 0.962439 0.482010
vt 0.556036 0.018324
vn 0.000000 -1.000000 0.000000
vn 0.000000 -1.000000 0.000000
vn 0.000000 -1.000000 0.000000
vn 0.000000 -1.000000 0.000000
vn -0.000316 0.006540 -0.999979
vn -0.000316 0.006540 -0.999979
vn -0.000211 0.006638 -0.999978
vn 0.000326 0.007142 -0.999974
vn 0.000000 1.000000 -0.000000
vn 0.000000 1.000000 -0.000000
vn 0.268226 0.963356 -0.000000
vn 0.268226 0.963356 -0.000000
vn 0.590353 0.807145 -0.000000
vn 0.590353 0.807145 -0.000000
vn 0.911778 0.410684 -0.000000
vn 0.911778 0.410684 -0.000000
vn 0.996533 0.083204 -0.000000
vn 0.996533 0.083204 -0.000000
vn 0.996533 -0.083204 0.000000
vn 0.996533 -0.083204 0.000000
vn 0.007961 0.000963 -0.999968
vn 0.007559 0.013923 -0.999875
vn 0.007559 0.013923 -0.999875
vn 0.008447 0.013598 -0.999872
vn 0.294235 -0.955733 0.000000
vn 0.294235 -0.955733 0.000000
vn 0.911778 -0.410684 0.000000
vn 0.911778 -0.410684 0.000000
vn 0.590353 -0.807145 0.000000
vn 0.590353 -0.807145 0.000000
vn 0.007617 -0.001998 -0.999969
vn 0.006003 -0.001655 -0.999981
vn 0.007502 -0.002068 -0.999970
vn 0.007502 -0.002068 -0.999970
vn 0.007445 -0.002053 -0.999970
vn -1.000000 -0.000688 -0.000310
vn -1.000000 -0.000688 -0.000310
vn -1.000000 -0.000688 -0.000310
vn -1.000000 -0.000688 -0.000310
vn 0.000001 -0.000000 -1.000000
vn 0.000000 -0.000000 -1.000000
vn 0.000000 -0.000000 -1.000000
vn 0.000000 -0.000000 -1.000000
vn 0.000000 -0.000000 -1.000000
vn 0.000000 -0.000000 -1.000000
vn 0.000000 -0.000000 -1.000000
vn 0.000000 -0.000000 -1.000000
vn 0.000000 -0.000000 -1.000000
vn 0.000001 -0.000000 -1.000000
vn 0.000001 -0.000000 -1.000000
vn -0.007451 0.011210 0.999909
vn -0.053952 0.011317 0.998479
vn -0.045258 0.011243 0.998912
vn -0.006709 0.011479 0.999912
vn -0.006709 0.011479 0.999912
vn -0.000203 0.005906 0.999983
vn 0.000165 0.005592 0.999984
vn 0.000259 1.000000 0.000093
vn 0.000259 1.000000 0.000093
vn 0.000260 1.000000 0.000043
vn 0.000260 1.000000 0.000056
vn -0.054208 0.011352 0.998465
vn -0.054879 0.010922 0.998433
vn -0.055753 -0.007583 0.998416
vn -0.054208 0.011352 0.998465
vn -0.053537 -0.086136 0.994844
vn -0.999983 -0.005751 -0.000293
vn -0.999983 -0.005751 -0.000293
vn -0.999983 -0.005751 -0.000293
vn -0.999983 -0.005751 -0.000293
vn 0.002048 -0.999998 0.000000
vn 0.002048 -0.999998 0.000000
vn 0.002047 -0.999998 0.000001
vn 0.002047 -0.999998 0.000001
vn 0.000000 1.000000 -0.000000
vn 0.000000 1.000000 -0.000000
vn -0.002017 -0.045818 0.998948
vn -0.048022 -0.088224 0.994942
vn -0.048022 -0.088224 0.994942
vn 0.001343 -0.042714 0.999086
vn 0.000265 0.005506 0.999985
vn 0.000265 0.005506 0.999985
vn 0.002032 -0.042077 0.999112
vn 0.002032 -0.042077 0.999112
vn -1.000000 0.000000 0.000000
vn -1.000000 0.000000 0.000000
vn -1.000000 0.000000 0.000000
vn -1.000000 0.000000 0.000000
vn -1.000000 0.000000 0.000000
vn -1.000000 0.000000 0.000000
vn -1.000000 0.000000 0.000000
vn -1.000000 0.000000 0.000000
vn -1.000000 0.000000 0.000000
vn -1.000000 0.000000 0.000000
vn -1.000000 0.000000 0.000000
vn -1.000000 0.000000 0.000000
vn 0.000000 0.000000 1.000000
vn 0.000000 0.000000 1.000000
vn 0.000000 0.000000 1.000000
vn 0.000000 0.000000 1.000000
vn 0.000104 1.000000 0.000114
vn 0.000139 1.000000 0.000089
vn 0.000000 1.000000 0.000190
vn 0.000000 1.000000 0.000190
vn 0.002049 -0.999998 0.000000
vn 0.002049 -0.999998 0.000000
vn 0.002049 -0.999998 0.000001
vn 0.002049 -0.999998 0.000001
s 1
g polySurface2
usemtl lambert2SG
f 1/76/1 2/65/2 3/64/3 4/75/4
s 2
f 7/7/5 5/88/6 6/6/7 15/15/8
s 1
f 6/74/9 8/55/10 9/72/11 10/10/12
f 11/11/13 10/10/12 9/72/11 12/71/14
f 11/11/13 12/71/14 13/68/15 14/69/16
f 16/66/17 14/69/16 13/68/15 17/67/18
f 16/66/17 17/67/18 18/62/19 19/63/20
s 2
f 26/26/21 15/15/8 6/6/7 10/73/22 11/70/23 14/14/24
s 1
f 3/64/3 2/65/2 20/61/25 21/21/26
f 22/57/27 19/63/20 18/62/19 23/58/28
f 20/61/25 24/56/29 25/25/30 21/21/26
f 22/57/27 23/58/28 25/25/30 24/56/29
s 2
f 16/16/31 26/26/21 14/14/24
f 29/29/32 27/27/33 15/15/34 26/26/21 16/16/31 19/19/35
s off
f 27/27/36 28/51/37 30/30/38 15/15/39
s 2
f 22/22/40 29/29/32 19/19/35
f 32/84/41 27/27/42 2/2/43 1/85/44
s off
f 33/50/45 31/31/46 30/52/47 28/28/48
s 2
f 2/2/43 27/27/42 29/29/32 22/22/40 24/24/49 20/20/50
s 4
f 23/23/51 18/18/52 34/34/53
f 21/60/54 25/59/55 23/23/51 34/34/53 35/35/56 3/3/57
s 5
f 35/35/58 36/47/59 43/80/60 41/41/61
s 4
f 35/35/62 34/34/53 18/18/52 17/17/63 37/37/64 38/38/65
f 17/17/63 13/13/66 37/37/64
s off
f 38/38/67 39/39/68 36/47/69 35/35/70
s 6
f 31/86/71 7/7/72 15/15/73 30/30/74
s 1
f 40/54/75 8/55/10 6/74/9 5/53/76
s 4
f 38/38/77 37/37/64 13/13/66 12/12/78 9/9/79 8/8/80
f 3/3/57 35/35/56 41/41/81 4/4/82
f 42/78/83 38/38/77 8/8/80 40/79/84
s off
f 41/81/85 32/32/86 1/1/87 4/82/88
f 31/31/89 33/50/90 43/48/91 44/44/92
f 40/40/93 5/5/94 7/87/95 42/42/96
f 44/44/97 43/48/98 36/36/99 39/46/100
s 5
f 32/84/101 33/33/102 28/51/103 27/27/104
s 6
f 44/77/105 42/42/106 7/87/72 31/49/71
f 39/39/107 38/38/108 42/78/106 44/45/105
s 5
f 41/81/61 43/43/60 33/83/102 32/32/101
