# Blender v2.81 (sub 16) OBJ File: 'BlockyPineTree.blend'
# www.blender.org
mtllib shittytree.mtl.mtl
o Green_Cone.001
v 0.000000 4.903648 -1.212014
v 0.226004 4.903648 -1.188726
v 0.443323 4.903648 -1.119755
v 0.643605 4.903648 -1.007753
v 0.819154 4.903648 -0.857023
v 0.963223 4.903648 -0.673359
v 1.070276 4.903648 -0.463818
v 1.136199 4.903648 -0.236452
v 1.158459 4.903648 -0.000000
v 1.136199 4.903648 0.236452
v 1.070276 4.903648 0.463818
v 0.963223 4.903648 0.673359
v 0.819154 4.903648 0.857023
v 0.643605 4.903648 1.007753
v 0.443323 4.903648 1.119755
v 0.226004 4.903648 1.188726
v -0.000000 4.903648 1.212014
v -0.226005 4.903648 1.188725
v -0.443323 4.903648 1.119755
v -0.643606 4.903648 1.007753
v -0.819154 4.903648 0.857023
v -0.963224 4.903648 0.673358
v -1.070277 4.903648 0.463817
v 0.000000 8.256500 0.000000
v -1.136199 4.903648 0.236451
v -1.158459 4.903648 -0.000001
v -1.136199 4.903648 -0.236453
v -1.070276 4.903648 -0.463819
v -0.963222 4.903648 -0.673360
v -0.819153 4.903648 -0.857024
v -0.643604 4.903648 -1.007754
v -0.443321 4.903648 -1.119756
v -0.226002 4.903648 -1.188726
v 0.000000 6.286773 -1.212014
v 0.226004 6.286773 -1.188726
v 0.443323 6.286773 -1.119755
v 0.643605 6.286773 -1.007753
v 0.819154 6.286773 -0.857023
v 0.963223 6.286773 -0.673359
v 1.070276 6.286773 -0.463818
v 1.136199 6.286773 -0.236452
v 1.158459 6.286773 -0.000000
v 1.136199 6.286773 0.236452
v 1.070276 6.286773 0.463818
v 0.963223 6.286773 0.673359
v 0.819154 6.286773 0.857023
v 0.643605 6.286773 1.007753
v 0.443323 6.286773 1.119755
v 0.226004 6.286773 1.188726
v -0.000000 6.286773 1.212014
v -0.226005 6.286773 1.188726
v -0.443323 6.286773 1.119755
v -0.643606 6.286773 1.007753
v -0.819155 6.286773 0.857023
v -0.963224 6.286773 0.673358
v -1.070277 6.286773 0.463817
v 0.000000 9.639626 0.000000
v -1.136199 6.286773 0.236451
v -1.158459 6.286773 -0.000001
v -1.136199 6.286773 -0.236454
v -1.070276 6.286773 -0.463819
v -0.963223 6.286773 -0.673360
v -0.819153 6.286773 -0.857024
v -0.643604 6.286773 -1.007754
v -0.443321 6.286773 -1.119756
v -0.226002 6.286773 -1.188726
v 0.000000 3.072866 -1.212014
v 0.226004 3.072866 -1.188726
v 0.443323 3.072866 -1.119755
v 0.643605 3.072866 -1.007753
v 0.819154 3.072866 -0.857023
v 0.963223 3.072866 -0.673359
v 1.070276 3.072866 -0.463818
v 1.136199 3.072866 -0.236452
v 1.158459 3.072866 -0.000000
v 1.136199 3.072866 0.236452
v 1.070276 3.072866 0.463818
v 0.963223 3.072866 0.673359
v 0.819154 3.072866 0.857023
v 0.643605 3.072866 1.007753
v 0.443323 3.072866 1.119755
v 0.226004 3.072866 1.188726
v -0.000000 3.072866 1.212014
v -0.226005 3.072866 1.188725
v -0.443323 3.072866 1.119755
v -0.643606 3.072866 1.007753
v -0.819154 3.072866 0.857023
v -0.963224 3.072866 0.673358
v -1.070277 3.072866 0.463817
v 0.000000 6.425719 0.000000
v -1.136199 3.072866 0.236451
v -1.158459 3.072866 -0.000001
v -1.136199 3.072866 -0.236453
v -1.070276 3.072866 -0.463819
v -0.963222 3.072866 -0.673360
v -0.819153 3.072866 -0.857024
v -0.643604 3.072866 -1.007754
v -0.443321 3.072866 -1.119756
v -0.226002 3.072866 -1.188726
v 0.000000 1.574472 -1.624936
v 0.305241 1.574472 -1.593714
v 0.598752 1.574472 -1.501245
v 0.869254 1.574472 -1.351085
v 1.106350 1.574472 -1.149004
v 1.300930 1.574472 -0.902766
v 1.445516 1.574472 -0.621836
v 1.534551 1.574472 -0.317009
v 1.564615 1.574472 -0.000000
v 1.534552 1.574472 0.317009
v 1.445516 1.574472 0.621836
v 1.300930 1.574472 0.902766
v 1.106350 1.574472 1.149004
v 0.869254 1.574472 1.351085
v 0.598752 1.574472 1.501246
v 0.305241 1.574472 1.593714
v -0.000001 1.574472 1.624936
v -0.305242 1.574472 1.593714
v -0.598753 1.574472 1.501245
v -0.869254 1.574472 1.351085
v -1.106351 1.574472 1.149003
v -1.300931 1.574472 0.902765
v -1.445516 1.574472 0.621835
v 0.000000 4.927324 0.000000
v -1.534552 1.574472 0.317008
v -1.564615 1.574472 -0.000002
v -1.534551 1.574472 -0.317011
v -1.445515 1.574472 -0.621838
v -1.300929 1.574472 -0.902768
v -1.106349 1.574472 -1.149005
v -0.869252 1.574472 -1.351086
v -0.598750 1.574472 -1.501246
v -0.305239 1.574472 -1.593714
v 0.268058 7.637461 -0.309037
v 0.268058 0.065926 -0.309037
v 0.268058 7.637461 0.309037
v 0.268058 0.065926 0.309037
v -0.268058 7.637461 -0.309037
v -0.268058 0.065926 -0.309037
v -0.268058 7.637461 0.309037
v -0.268058 0.065926 0.309037
vt 0.250000 0.490000
vt 0.250000 0.250000
vt 0.296822 0.485388
vt 0.341844 0.471731
vt 0.383337 0.449553
vt 0.419706 0.419706
vt 0.449553 0.383337
vt 0.471731 0.341844
vt 0.485388 0.296822
vt 0.490000 0.250000
vt 0.485388 0.203178
vt 0.471731 0.158156
vt 0.449553 0.116663
vt 0.419706 0.080294
vt 0.383337 0.050447
vt 0.341844 0.028269
vt 0.296822 0.014612
vt 0.250000 0.010000
vt 0.203178 0.014612
vt 0.158156 0.028269
vt 0.116663 0.050447
vt 0.080294 0.080294
vt 0.050447 0.116663
vt 0.028269 0.158156
vt 0.014611 0.203179
vt 0.010000 0.250000
vt 0.014612 0.296822
vt 0.028269 0.341844
vt 0.050447 0.383337
vt 0.080295 0.419706
vt 0.116663 0.449553
vt 0.158156 0.471731
vt 0.203179 0.485389
vt 0.750000 0.490000
vt 0.796822 0.485388
vt 0.841844 0.471731
vt 0.883337 0.449553
vt 0.919706 0.419706
vt 0.949553 0.383337
vt 0.971731 0.341844
vt 0.985388 0.296822
vt 0.990000 0.250000
vt 0.985388 0.203178
vt 0.971731 0.158156
vt 0.949553 0.116663
vt 0.919706 0.080294
vt 0.883337 0.050447
vt 0.841844 0.028269
vt 0.796822 0.014612
vt 0.750000 0.010000
vt 0.703178 0.014612
vt 0.658156 0.028269
vt 0.616663 0.050447
vt 0.580294 0.080294
vt 0.550447 0.116663
vt 0.528269 0.158156
vt 0.514611 0.203179
vt 0.510000 0.250000
vt 0.514612 0.296822
vt 0.528269 0.341844
vt 0.550447 0.383337
vt 0.580295 0.419706
vt 0.616663 0.449553
vt 0.658156 0.471731
vt 0.703179 0.485389
vt 0.250000 0.490000
vt 0.250000 0.250000
vt 0.296822 0.485388
vt 0.341844 0.471731
vt 0.383337 0.449553
vt 0.419706 0.419706
vt 0.449553 0.383337
vt 0.471731 0.341844
vt 0.485388 0.296822
vt 0.490000 0.250000
vt 0.485388 0.203178
vt 0.471731 0.158156
vt 0.449553 0.116663
vt 0.419706 0.080294
vt 0.383337 0.050447
vt 0.341844 0.028269
vt 0.296822 0.014612
vt 0.250000 0.010000
vt 0.203178 0.014612
vt 0.158156 0.028269
vt 0.116663 0.050447
vt 0.080294 0.080294
vt 0.050447 0.116663
vt 0.028269 0.158156
vt 0.014611 0.203179
vt 0.010000 0.250000
vt 0.014612 0.296822
vt 0.028269 0.341844
vt 0.050447 0.383337
vt 0.080295 0.419706
vt 0.116663 0.449553
vt 0.158156 0.471731
vt 0.203179 0.485389
vt 0.750000 0.490000
vt 0.796822 0.485388
vt 0.841844 0.471731
vt 0.883337 0.449553
vt 0.919706 0.419706
vt 0.949553 0.383337
vt 0.971731 0.341844
vt 0.985388 0.296822
vt 0.990000 0.250000
vt 0.985388 0.203178
vt 0.971731 0.158156
vt 0.949553 0.116663
vt 0.919706 0.080294
vt 0.883337 0.050447
vt 0.841844 0.028269
vt 0.796822 0.014612
vt 0.750000 0.010000
vt 0.703178 0.014612
vt 0.658156 0.028269
vt 0.616663 0.050447
vt 0.580294 0.080294
vt 0.550447 0.116663
vt 0.528269 0.158156
vt 0.514611 0.203179
vt 0.510000 0.250000
vt 0.514612 0.296822
vt 0.528269 0.341844
vt 0.550447 0.383337
vt 0.580295 0.419706
vt 0.616663 0.449553
vt 0.658156 0.471731
vt 0.703179 0.485389
vt 0.250000 0.490000
vt 0.250000 0.250000
vt 0.296822 0.485388
vt 0.341844 0.471731
vt 0.383337 0.449553
vt 0.419706 0.419706
vt 0.449553 0.383337
vt 0.471731 0.341844
vt 0.485388 0.296822
vt 0.490000 0.250000
vt 0.485388 0.203178
vt 0.471731 0.158156
vt 0.449553 0.116663
vt 0.419706 0.080294
vt 0.383337 0.050447
vt 0.341844 0.028269
vt 0.296822 0.014612
vt 0.250000 0.010000
vt 0.203178 0.014612
vt 0.158156 0.028269
vt 0.116663 0.050447
vt 0.080294 0.080294
vt 0.050447 0.116663
vt 0.028269 0.158156
vt 0.014611 0.203179
vt 0.010000 0.250000
vt 0.014612 0.296822
vt 0.028269 0.341844
vt 0.050447 0.383337
vt 0.080295 0.419706
vt 0.116663 0.449553
vt 0.158156 0.471731
vt 0.203179 0.485389
vt 0.750000 0.490000
vt 0.796822 0.485388
vt 0.841844 0.471731
vt 0.883337 0.449553
vt 0.919706 0.419706
vt 0.949553 0.383337
vt 0.971731 0.341844
vt 0.985388 0.296822
vt 0.990000 0.250000
vt 0.985388 0.203178
vt 0.971731 0.158156
vt 0.949553 0.116663
vt 0.919706 0.080294
vt 0.883337 0.050447
vt 0.841844 0.028269
vt 0.796822 0.014612
vt 0.750000 0.010000
vt 0.703178 0.014612
vt 0.658156 0.028269
vt 0.616663 0.050447
vt 0.580294 0.080294
vt 0.550447 0.116663
vt 0.528269 0.158156
vt 0.514611 0.203179
vt 0.510000 0.250000
vt 0.514612 0.296822
vt 0.528269 0.341844
vt 0.550447 0.383337
vt 0.580295 0.419706
vt 0.616663 0.449553
vt 0.658156 0.471731
vt 0.703179 0.485389
vt 0.250000 0.490000
vt 0.250000 0.250000
vt 0.296822 0.485388
vt 0.341844 0.471731
vt 0.383337 0.449553
vt 0.419706 0.419706
vt 0.449553 0.383337
vt 0.471731 0.341844
vt 0.485388 0.296822
vt 0.490000 0.250000
vt 0.485388 0.203178
vt 0.471731 0.158156
vt 0.449553 0.116663
vt 0.419706 0.080294
vt 0.383337 0.050447
vt 0.341844 0.028269
vt 0.296822 0.014612
vt 0.250000 0.010000
vt 0.203178 0.014612
vt 0.158156 0.028269
vt 0.116663 0.050447
vt 0.080294 0.080294
vt 0.050447 0.116663
vt 0.028269 0.158156
vt 0.014611 0.203179
vt 0.010000 0.250000
vt 0.014612 0.296822
vt 0.028269 0.341844
vt 0.050447 0.383337
vt 0.080295 0.419706
vt 0.116663 0.449553
vt 0.158156 0.471731
vt 0.203179 0.485389
vt 0.750000 0.490000
vt 0.796822 0.485388
vt 0.841844 0.471731
vt 0.883337 0.449553
vt 0.919706 0.419706
vt 0.949553 0.383337
vt 0.971731 0.341844
vt 0.985388 0.296822
vt 0.990000 0.250000
vt 0.985388 0.203178
vt 0.971731 0.158156
vt 0.949553 0.116663
vt 0.919706 0.080294
vt 0.883337 0.050447
vt 0.841844 0.028269
vt 0.796822 0.014612
vt 0.750000 0.010000
vt 0.703178 0.014612
vt 0.658156 0.028269
vt 0.616663 0.050447
vt 0.580294 0.080294
vt 0.550447 0.116663
vt 0.528269 0.158156
vt 0.514611 0.203179
vt 0.510000 0.250000
vt 0.514612 0.296822
vt 0.528269 0.341844
vt 0.550447 0.383337
vt 0.580295 0.419706
vt 0.616663 0.449553
vt 0.658156 0.471731
vt 0.703179 0.485389
vt 0.625000 0.500000
vt 0.875000 0.500000
vt 0.875000 0.750000
vt 0.625000 0.750000
vt 0.375000 0.750000
vt 0.625000 1.000000
vt 0.375000 1.000000
vt 0.375000 0.000000
vt 0.625000 0.000000
vt 0.625000 0.250000
vt 0.375000 0.250000
vt 0.125000 0.500000
vt 0.375000 0.500000
vt 0.125000 0.750000
vn 0.0965 0.3384 -0.9361
vn 0.2848 0.3373 -0.8973
vn 0.4598 0.3354 -0.8222
vn 0.6143 0.3329 -0.7154
vn 0.7426 0.3303 -0.5825
vn 0.8413 0.3280 -0.4298
vn 0.9079 0.3262 -0.2632
vn 0.9415 0.3253 -0.0886
vn 0.9415 0.3253 0.0886
vn 0.9079 0.3262 0.2632
vn 0.8413 0.3280 0.4298
vn 0.7426 0.3303 0.5825
vn 0.6143 0.3329 0.7154
vn 0.4598 0.3354 0.8222
vn 0.2848 0.3373 0.8973
vn 0.0965 0.3384 0.9361
vn -0.0965 0.3384 0.9361
vn -0.2848 0.3373 0.8973
vn -0.4598 0.3354 0.8222
vn -0.6143 0.3329 0.7154
vn -0.7426 0.3303 0.5825
vn -0.8413 0.3280 0.4298
vn -0.9079 0.3262 0.2632
vn -0.9415 0.3253 0.0886
vn -0.9415 0.3253 -0.0886
vn -0.9079 0.3262 -0.2632
vn -0.8413 0.3280 -0.4298
vn -0.7426 0.3303 -0.5825
vn -0.6143 0.3329 -0.7154
vn -0.4598 0.3354 -0.8222
vn -0.2848 0.3373 -0.8973
vn -0.0965 0.3384 -0.9361
vn 0.0000 -1.0000 0.0000
vn 0.8412 0.3280 -0.4298
vn 0.8412 0.3280 0.4298
vn -0.8412 0.3280 0.4298
vn -0.8412 0.3280 -0.4298
vn 0.0917 0.4343 -0.8961
vn 0.2708 0.4333 -0.8596
vn 0.4379 0.4314 -0.7888
vn 0.5860 0.4290 -0.6875
vn 0.7097 0.4264 -0.5608
vn 0.8053 0.4240 -0.4144
vn 0.8701 0.4223 -0.2541
vn 0.9029 0.4213 -0.0856
vn 0.9029 0.4213 0.0856
vn 0.8701 0.4223 0.2541
vn 0.8053 0.4240 0.4144
vn 0.7097 0.4264 0.5608
vn 0.5860 0.4290 0.6875
vn 0.4379 0.4314 0.7888
vn 0.2708 0.4333 0.8596
vn 0.0917 0.4343 0.8961
vn -0.0917 0.4343 0.8961
vn -0.2708 0.4333 0.8596
vn -0.4379 0.4314 0.7888
vn -0.5860 0.4290 0.6875
vn -0.7097 0.4264 0.5608
vn -0.8053 0.4240 0.4144
vn -0.8701 0.4223 0.2541
vn -0.9029 0.4213 0.0856
vn -0.9029 0.4213 -0.0856
vn -0.8701 0.4223 -0.2541
vn -0.8053 0.4240 -0.4144
vn -0.7097 0.4264 -0.5608
vn -0.5860 0.4290 -0.6875
vn -0.4379 0.4314 -0.7888
vn -0.2708 0.4333 -0.8596
vn -0.0917 0.4343 -0.8961
vn 0.0000 1.0000 0.0000
vn 0.0000 0.0000 1.0000
vn -1.0000 0.0000 0.0000
vn 1.0000 0.0000 0.0000
vn 0.0000 0.0000 -1.0000
usemtl Material
s off
f 1/1/1 24/2/1 2/3/1
f 2/3/2 24/2/2 3/4/2
f 3/4/3 24/2/3 4/5/3
f 4/5/4 24/2/4 5/6/4
f 5/6/5 24/2/5 6/7/5
f 6/7/6 24/2/6 7/8/6
f 7/8/7 24/2/7 8/9/7
f 8/9/8 24/2/8 9/10/8
f 9/10/9 24/2/9 10/11/9
f 10/11/10 24/2/10 11/12/10
f 11/12/11 24/2/11 12/13/11
f 12/13/12 24/2/12 13/14/12
f 13/14/13 24/2/13 14/15/13
f 14/15/14 24/2/14 15/16/14
f 15/16/15 24/2/15 16/17/15
f 16/17/16 24/2/16 17/18/16
f 17/18/17 24/2/17 18/19/17
f 18/19/18 24/2/18 19/20/18
f 19/20/19 24/2/19 20/21/19
f 20/21/20 24/2/20 21/22/20
f 21/22/21 24/2/21 22/23/21
f 22/23/22 24/2/22 23/24/22
f 23/24/23 24/2/23 25/25/23
f 25/25/24 24/2/24 26/26/24
f 26/26/25 24/2/25 27/27/25
f 27/27/26 24/2/26 28/28/26
f 28/28/27 24/2/27 29/29/27
f 29/29/28 24/2/28 30/30/28
f 30/30/29 24/2/29 31/31/29
f 31/31/30 24/2/30 32/32/30
f 32/32/31 24/2/31 33/33/31
f 33/33/32 24/2/32 1/1/32
f 1/34/33 2/35/33 3/36/33 4/37/33 5/38/33 6/39/33 7/40/33 8/41/33 9/42/33 10/43/33 11/44/33 12/45/33 13/46/33 14/47/33 15/48/33 16/49/33 17/50/33 18/51/33 19/52/33 20/53/33 21/54/33 22/55/33 23/56/33 25/57/33 26/58/33 27/59/33 28/60/33 29/61/33 30/62/33 31/63/33 32/64/33 33/65/33
f 34/66/1 57/67/1 35/68/1
f 35/68/2 57/67/2 36/69/2
f 36/69/3 57/67/3 37/70/3
f 37/70/4 57/67/4 38/71/4
f 38/71/5 57/67/5 39/72/5
f 39/72/34 57/67/34 40/73/34
f 40/73/7 57/67/7 41/74/7
f 41/74/8 57/67/8 42/75/8
f 42/75/9 57/67/9 43/76/9
f 43/76/10 57/67/10 44/77/10
f 44/77/35 57/67/35 45/78/35
f 45/78/12 57/67/12 46/79/12
f 46/79/13 57/67/13 47/80/13
f 47/80/14 57/67/14 48/81/14
f 48/81/15 57/67/15 49/82/15
f 49/82/16 57/67/16 50/83/16
f 50/83/17 57/67/17 51/84/17
f 51/84/18 57/67/18 52/85/18
f 52/85/19 57/67/19 53/86/19
f 53/86/20 57/67/20 54/87/20
f 54/87/21 57/67/21 55/88/21
f 55/88/36 57/67/36 56/89/36
f 56/89/23 57/67/23 58/90/23
f 58/90/24 57/67/24 59/91/24
f 59/91/25 57/67/25 60/92/25
f 60/92/26 57/67/26 61/93/26
f 61/93/37 57/67/37 62/94/37
f 62/94/28 57/67/28 63/95/28
f 63/95/29 57/67/29 64/96/29
f 64/96/30 57/67/30 65/97/30
f 65/97/31 57/67/31 66/98/31
f 66/98/32 57/67/32 34/66/32
f 34/99/33 35/100/33 36/101/33 37/102/33 38/103/33 39/104/33 40/105/33 41/106/33 42/107/33 43/108/33 44/109/33 45/110/33 46/111/33 47/112/33 48/113/33 49/114/33 50/115/33 51/116/33 52/117/33 53/118/33 54/119/33 55/120/33 56/121/33 58/122/33 59/123/33 60/124/33 61/125/33 62/126/33 63/127/33 64/128/33 65/129/33 66/130/33
f 67/131/1 90/132/1 68/133/1
f 68/133/2 90/132/2 69/134/2
f 69/134/3 90/132/3 70/135/3
f 70/135/4 90/132/4 71/136/4
f 71/136/5 90/132/5 72/137/5
f 72/137/6 90/132/6 73/138/6
f 73/138/7 90/132/7 74/139/7
f 74/139/8 90/132/8 75/140/8
f 75/140/9 90/132/9 76/141/9
f 76/141/10 90/132/10 77/142/10
f 77/142/11 90/132/11 78/143/11
f 78/143/12 90/132/12 79/144/12
f 79/144/13 90/132/13 80/145/13
f 80/145/14 90/132/14 81/146/14
f 81/146/15 90/132/15 82/147/15
f 82/147/16 90/132/16 83/148/16
f 83/148/17 90/132/17 84/149/17
f 84/149/18 90/132/18 85/150/18
f 85/150/19 90/132/19 86/151/19
f 86/151/20 90/132/20 87/152/20
f 87/152/21 90/132/21 88/153/21
f 88/153/22 90/132/22 89/154/22
f 89/154/23 90/132/23 91/155/23
f 91/155/24 90/132/24 92/156/24
f 92/156/25 90/132/25 93/157/25
f 93/157/26 90/132/26 94/158/26
f 94/158/37 90/132/37 95/159/37
f 95/159/28 90/132/28 96/160/28
f 96/160/29 90/132/29 97/161/29
f 97/161/30 90/132/30 98/162/30
f 98/162/31 90/132/31 99/163/31
f 99/163/32 90/132/32 67/131/32
f 67/164/33 68/165/33 69/166/33 70/167/33 71/168/33 72/169/33 73/170/33 74/171/33 75/172/33 76/173/33 77/174/33 78/175/33 79/176/33 80/177/33 81/178/33 82/179/33 83/180/33 84/181/33 85/182/33 86/183/33 87/184/33 88/185/33 89/186/33 91/187/33 92/188/33 93/189/33 94/190/33 95/191/33 96/192/33 97/193/33 98/194/33 99/195/33
f 100/196/38 123/197/38 101/198/38
f 101/198/39 123/197/39 102/199/39
f 102/199/40 123/197/40 103/200/40
f 103/200/41 123/197/41 104/201/41
f 104/201/42 123/197/42 105/202/42
f 105/202/43 123/197/43 106/203/43
f 106/203/44 123/197/44 107/204/44
f 107/204/45 123/197/45 108/205/45
f 108/205/46 123/197/46 109/206/46
f 109/206/47 123/197/47 110/207/47
f 110/207/48 123/197/48 111/208/48
f 111/208/49 123/197/49 112/209/49
f 112/209/50 123/197/50 113/210/50
f 113/210/51 123/197/51 114/211/51
f 114/211/52 123/197/52 115/212/52
f 115/212/53 123/197/53 116/213/53
f 116/213/54 123/197/54 117/214/54
f 117/214/55 123/197/55 118/215/55
f 118/215/56 123/197/56 119/216/56
f 119/216/57 123/197/57 120/217/57
f 120/217/58 123/197/58 121/218/58
f 121/218/59 123/197/59 122/219/59
f 122/219/60 123/197/60 124/220/60
f 124/220/61 123/197/61 125/221/61
f 125/221/62 123/197/62 126/222/62
f 126/222/63 123/197/63 127/223/63
f 127/223/64 123/197/64 128/224/64
f 128/224/65 123/197/65 129/225/65
f 129/225/66 123/197/66 130/226/66
f 130/226/67 123/197/67 131/227/67
f 131/227/68 123/197/68 132/228/68
f 132/228/69 123/197/69 100/196/69
f 100/229/33 101/230/33 102/231/33 103/232/33 104/233/33 105/234/33 106/235/33 107/236/33 108/237/33 109/238/33 110/239/33 111/240/33 112/241/33 113/242/33 114/243/33 115/244/33 116/245/33 117/246/33 118/247/33 119/248/33 120/249/33 121/250/33 122/251/33 124/252/33 125/253/33 126/254/33 127/255/33 128/256/33 129/257/33 130/258/33 131/259/33 132/260/33
f 133/261/70 137/262/70 139/263/70 135/264/70
f 136/265/71 135/264/71 139/266/71 140/267/71
f 140/268/72 139/269/72 137/270/72 138/271/72
f 138/272/33 134/273/33 136/265/33 140/274/33
f 134/273/73 133/261/73 135/264/73 136/265/73
f 138/271/74 137/270/74 133/261/74 134/273/74
